<svg width="70" height="70" viewBox="0 0 70 70" fill="none" xmlns="http://www.w3.org/2000/svg">
<rect width="70" height="70" rx="10" fill="#67CADF"/>
<g clip-path="url(#clip0_513_2545)">
<path fill-rule="evenodd" clip-rule="evenodd" d="M46.1093 49.6668H36.7773L33.8093 40.9428C33.628 40.5708 33.2493 40.3335 32.8333 40.3335H32.3333V39.0002H37.3053L40.0467 34.0162C40.188 33.7882 40.4267 33.6668 40.6693 33.6668C41.2373 33.6668 41.5907 34.2922 41.292 34.7788L38.9707 39.0002H44.3627L42.0413 34.7788C41.7427 34.2922 42.096 33.6668 42.664 33.6668C42.9067 33.6668 43.1453 33.7882 43.2867 34.0162L46.028 39.0002H51V40.3335H50.5013C50.0853 40.3335 49.7053 40.5708 49.524 40.9455L46.1093 49.6668ZM34.9147 48.3335H19C19 47.9642 18.9973 44.9308 18.9947 44.5962C18.984 41.7815 19.1053 40.1708 22.3467 39.4228C25.8973 38.6042 30.0813 37.8695 28.396 34.7628C23.404 25.5548 26.9733 20.3335 32.3347 20.3335C37.5907 20.3335 41.2493 25.3615 36.2707 34.7628L34.816 37.6668H32.3333C31.5973 37.6668 31 38.2642 31 39.0002V40.3335C31 41.0695 31.5973 41.6668 32.3333 41.6668H32.648L34.9147 48.3335ZM39.6427 42.4322C39.6427 42.0642 39.344 41.7655 38.976 41.7655C38.608 41.7655 38.3093 42.0642 38.3093 42.4322V46.4322C38.3093 46.8002 38.608 47.0988 38.976 47.0988C39.344 47.0988 39.6427 46.8002 39.6427 46.4322V42.4322ZM42.3093 42.3335C42.3093 41.9655 42.0107 41.6668 41.6427 41.6668C41.2747 41.6668 40.976 41.9655 40.976 42.3335V46.3335C40.976 46.7015 41.2747 47.0002 41.6427 47.0002C42.0107 47.0002 42.3093 46.7015 42.3093 46.3335V42.3335ZM45.024 42.3335C45.024 41.9655 44.7253 41.6668 44.3573 41.6668C43.9893 41.6668 43.6907 41.9655 43.6907 42.3335V46.3335C43.6907 46.7015 43.9893 47.0002 44.3573 47.0002C44.7253 47.0002 45.024 46.7015 45.024 46.3335V42.3335Z" fill="white"/>
</g>
<defs>
<clipPath id="clip0_513_2545">
<rect width="32" height="32" fill="white" transform="translate(19 19)"/>
</clipPath>
</defs>
</svg>
