<svg width="16" height="16" viewBox="0 0 16 16" fill="none" xmlns="http://www.w3.org/2000/svg">
<path d="M10.6468 11.3542C9.66083 12.1795 8.39083 12.6775 7.00616 12.6775C3.87483 12.6775 1.3335 10.1362 1.3335 7.0055C1.3335 3.87483 3.87483 1.3335 7.00616 1.3335C10.1362 1.3335 12.6782 3.87483 12.6782 7.0055C12.6782 8.39083 12.1802 9.6615 11.3548 10.6462L14.5208 13.8128C14.6182 13.9102 14.6668 14.0382 14.6668 14.1668C14.6668 14.5582 14.3088 14.6668 14.1668 14.6668C14.0388 14.6668 13.9108 14.6182 13.8128 14.5202L10.6468 11.3542ZM7.00616 2.33416C4.4275 2.33416 2.33483 4.4275 2.33483 7.0055C2.33483 9.5835 4.4275 11.6768 7.00616 11.6768C9.5835 11.6768 11.6775 9.5835 11.6775 7.0055C11.6775 4.4275 9.5835 2.33416 7.00616 2.33416V2.33416Z" fill="#6F757E"/>
</svg>

