<svg width="70" height="70" viewBox="0 0 70 70" fill="none" xmlns="http://www.w3.org/2000/svg">
<rect width="70" height="70" rx="10" fill="#F54F5F"/>
<g clip-path="url(#clip0_513_1141)">
<path d="M35 19C26.164 19 19 26.164 19 35C19 43.836 26.164 51 35 51C43.836 51 51 43.836 51 35C51 26.164 43.836 19 35 19ZM36.3333 41.596V43H35V41.6693C33.62 41.6453 32.192 41.316 31 40.7L31.6067 38.508C32.8813 39.0027 34.5787 39.528 35.9067 39.228C37.4387 38.8813 37.752 37.3053 36.0587 36.5467C34.8173 35.968 31.0213 35.4733 31.0213 32.2227C31.0213 30.4053 32.4067 28.7787 35 28.4227V27H36.3333V28.3573C37.2987 28.3827 38.3813 28.5507 39.5893 28.9173L39.1067 31.1133C38.0827 30.7533 36.9507 30.4267 35.8493 30.4933C33.864 30.6093 33.6893 32.328 35.0747 33.048C37.3573 34.1213 40.3333 34.9173 40.3333 37.7773C40.336 40.068 38.5427 41.2867 36.3333 41.596Z" fill="white"/>
</g>
<defs>
<clipPath id="clip0_513_1141">
<rect width="32" height="32" fill="white" transform="translate(19 19)"/>
</clipPath>
</defs>
</svg>
