<svg width="70" height="70" viewBox="0 0 70 70" fill="none" xmlns="http://www.w3.org/2000/svg">
<rect width="70" height="70" rx="10" fill="#27D095"/>
<path fill-rule="evenodd" clip-rule="evenodd" d="M35.8372 47.5493L43.7958 39.5893L45.7398 44.536L29.2865 51L22.8758 34.6827L35.8372 47.5493ZM34.1358 19H21.6665V31.604L35.8332 45.6667L48.3332 33.1667L34.1358 19ZM39.5025 31.6347C38.9492 31.0813 38.3492 30.812 37.6652 30.812C36.8945 30.812 36.0292 31.1333 34.7705 31.884C33.8612 32.4307 33.2798 32.6627 32.8292 32.6627C32.3478 32.6627 31.3852 32.1187 31.5478 31.0387C31.6172 30.5787 31.8812 30.1093 32.3105 29.6787C33.1798 28.8107 34.3692 28.548 35.3452 29.5373L36.3372 28.5453C35.7025 27.9107 34.8758 27.4893 33.9892 27.4893C33.2345 27.4893 32.4892 27.792 31.7718 28.392L30.9372 27.556L30.0065 28.488L30.8772 29.3573C30.1185 30.4587 29.7545 32.052 30.9785 33.2747C32.3265 34.6227 33.8958 33.996 35.5292 32.9653C36.3292 32.46 36.9732 32.2147 37.4958 32.2147C38.2812 32.2147 39.0692 32.8787 38.9332 33.892C38.8638 34.4067 38.5865 34.9093 38.1052 35.388C37.5038 35.9893 36.8998 36.2933 36.3092 36.2933C35.7518 36.2933 35.3132 36.0373 34.9105 35.6773L33.9252 36.6627C34.5425 37.2733 35.3678 37.6667 36.2385 37.6667C36.9638 37.6667 37.6878 37.3987 38.3878 36.8707L39.1078 37.588L40.0372 36.6587L39.3438 35.964C40.3345 34.7693 40.8865 33.0187 39.5025 31.6347V31.6347ZM26.5985 21.6667C27.8492 21.6667 28.8638 22.6813 28.8638 23.932C28.8638 25.1827 27.8492 26.1973 26.5985 26.1973C25.3478 26.1973 24.3332 25.1827 24.3332 23.932C24.3332 22.6813 25.3478 21.6667 26.5985 21.6667Z" fill="white"/>
</svg>
