<svg width="157" height="45" viewBox="0 0 157 45" fill="none" xmlns="http://www.w3.org/2000/svg">
<path d="M37.5273 12.4151C35.0189 8.67755 31.2078 6.00885 26.8377 4.92998C22.4676 3.85111 17.8523 4.43949 13.8927 6.58029C9.93315 8.72109 6.91344 12.2606 5.42306 16.508C3.93269 20.7554 4.07862 25.4057 5.83238 29.5513" stroke="#FF8E29" stroke-width="1.85985"/>
<path d="M4.93577 29.9722L6.72405 29.1854C4.86422 24.7503 4.72117 14.8073 11.5168 9.29932C5.15036 13.019 2.21754 24.1781 4.93577 29.9722Z" fill="#FFB069"/>
<path d="M7.25583 32.4003C9.68389 36.1906 13.4373 38.94 17.7833 40.1118C22.1294 41.2836 26.7562 40.7938 30.7605 38.738C34.7649 36.6821 37.8594 33.2078 39.4401 28.9932C41.0207 24.7786 40.974 20.1262 39.3091 15.9441" stroke="#050F24" stroke-width="1.85985"/>
<path d="M13.5898 16.9533C14.949 6.1519 32.7606 15.4511 40.2 10.4438C38.197 20.673 20.6 12.0176 13.5898 16.9533Z" fill="#FF8E29"/>
<path d="M13.5898 16.9532C19.9562 9.87143 21.8876 15.7371 36.5518 14.9502C29.1124 17.6685 19.7416 13.0998 13.5898 16.9532Z" fill="#050F24"/>
<path d="M8.72656 25.6804C10.4433 12.876 28.8987 23.3198 36.3381 18.3125C34.3352 29.5431 16.3805 19.5286 8.72656 25.6804Z" fill="#FF8E29"/>
<path d="M8.72656 25.7028C13.9484 17.5258 18.3835 23.6061 31.9031 23.463C24.6068 25.5375 15.093 21.0309 8.72656 25.7028Z" fill="#050F24"/>
<path d="M4.86328 35.8376C6.2224 20.1004 27.4676 31.4025 34.6924 26.6099C33.3332 38.985 14.8063 26.2522 4.86328 35.8376Z" fill="#FF8E29"/>
<path d="M4.86328 35.8377C9.2983 24.9648 18.0968 31.975 32.3318 31.1881C28.1829 35.337 12.7319 27.9692 4.86328 35.8377Z" fill="#050F24"/>
<path d="M54.2631 14.0253V25.0985C54.2631 26.6265 54.5549 27.7767 55.1386 28.5493C55.7223 29.3218 56.718 29.7081 58.1258 29.7081C59.5336 29.7081 60.5293 29.3218 61.113 28.5493C61.6967 27.7767 61.9886 26.6265 61.9886 25.0985V14.0253H64.847V24.635C64.847 25.9569 64.7268 27.0986 64.4865 28.06C64.2461 29.0214 63.8599 29.8197 63.3277 30.4549C62.7955 31.0729 62.1002 31.5365 61.2418 31.8455C60.4005 32.1545 59.3619 32.309 58.1258 32.309C56.8897 32.309 55.8425 32.1545 54.9841 31.8455C54.1429 31.5365 53.4562 31.0729 52.924 30.4549C52.3918 29.8197 52.0055 29.0214 51.7651 28.06C51.5248 27.0986 51.4046 25.9569 51.4046 24.635V14.0253H54.2631ZM75.9086 32.309C73.5566 32.309 71.7111 31.5193 70.372 29.9399C69.0329 28.3433 68.3633 26.0342 68.3633 23.0126C68.3633 21.5019 68.535 20.1714 68.8784 19.0211C69.2217 17.8709 69.7196 16.9009 70.372 16.1112C71.0243 15.3215 71.8141 14.7292 72.7411 14.3343C73.6853 13.9223 74.7412 13.7163 75.9086 13.7163C77.4709 13.7163 78.7756 14.0596 79.8228 14.7463C80.8872 15.4331 81.7199 16.446 82.3208 17.785L79.8743 19.1241C79.5653 18.2657 79.0846 17.5876 78.4322 17.0898C77.797 16.5747 76.9558 16.3172 75.9086 16.3172C74.518 16.3172 73.4278 16.7893 72.6381 17.7335C71.8484 18.6778 71.4535 19.9825 71.4535 21.6478V24.3775C71.4535 26.0428 71.8484 27.3475 72.6381 28.2918C73.4278 29.236 74.518 29.7081 75.9086 29.7081C76.9902 29.7081 77.8657 29.4334 78.5353 28.884C79.222 28.3175 79.7284 27.5965 80.0546 26.7209L82.398 28.1372C81.7971 29.442 80.9559 30.4635 79.8743 31.2017C78.7928 31.9399 77.4709 32.309 75.9086 32.309ZM88.2107 32L83.9616 14.0253H86.9231L88.7514 22.6779L90.0133 28.6523H90.0905L91.5326 22.6779L93.67 14.0253H96.9147L99.0264 22.6779L100.443 28.6265H100.52L101.833 22.6779L103.713 14.0253H106.572L102.142 32H98.8719L96.58 22.7036L95.2409 17.2443H95.1894L93.8245 22.7036L91.4811 32H88.2107ZM120.274 32L118.652 27.1329H111.931L110.36 32H107.399L113.527 14.0253H117.184L123.313 32H120.274ZM115.356 16.7035H115.227L112.626 24.635H117.931L115.356 16.7035ZM129.007 32H126.097V14.0253H133.848C135.462 14.0253 136.733 14.5146 137.66 15.4931C138.587 16.4545 139.05 17.7679 139.05 19.4332C139.05 20.7207 138.75 21.7937 138.149 22.6521C137.565 23.4933 136.698 24.0856 135.548 24.429L139.436 32H136.192L132.587 24.738H129.007V32ZM133.642 22.2916C134.381 22.2916 134.956 22.1028 135.368 21.7251C135.78 21.3302 135.986 20.7722 135.986 20.0512V18.8151C135.986 18.0941 135.78 17.5447 135.368 17.167C134.956 16.7721 134.381 16.5747 133.642 16.5747H129.007V22.2916H133.642ZM142.971 32V14.0253H154.483V16.6005H145.881V21.5963H153.684V24.1715H145.881V29.4248H154.483V32H142.971Z" fill="#050F24"/>
</svg>

